<svg viewBox="0 0 100 100" width="100px" height="100px" xmlns="http://www.w3.org/2000/svg">
  <defs>
    <linearGradient id="waterGrad" x1="0%" y1="0%" x2="100%" y2="100%">
      <stop offset="0%" stop-color="#0284c7" />
      <stop offset="100%" stop-color="#1e3a8a" />
    </linearGradient>
    <linearGradient id="techGrad" x1="0%" y1="0%" x2="100%" y2="0%">
      <stop offset="0%" stop-color="#10b981" />
      <stop offset="100%" stop-color="#06b6d4" />
    </linearGradient>
  </defs>

  <g>
    <path d="M 16 58 L 24 58 L 28 54" fill="none" stroke="url(#techGrad)" stroke-width="2.5" stroke-linecap="round" stroke-linejoin="round"/>
    <circle cx="15" cy="58" r="2.5" fill="#10b981"/>
    
    <path d="M 20 35 L 26 35 L 30 39" fill="none" stroke="url(#techGrad)" stroke-width="2" stroke-linecap="round" stroke-linejoin="round"/>
    <circle cx="19" cy="35" r="2" fill="#10b981"/>

    <path d="M 84 45 L 76 45 L 70 51" fill="none" stroke="#0ea5e9" stroke-width="2.5" stroke-linecap="round" stroke-linejoin="round"/>
    <circle cx="85" cy="45" r="2.5" fill="#0ea5e9"/>

    <path d="M 80 25 L 72 25 L 67 30" fill="none" stroke="#0ea5e9" stroke-width="1.5" stroke-linecap="round" stroke-linejoin="round"/>
    <circle cx="81" cy="25" r="1.5" fill="#0ea5e9"/>

    <path d="M 50 5 C 50 5 28 38 28 55 C 28 67 37 76 50 76 C 63 76 72 67 72 55 C 72 38 50 5 50 5 Z" fill="url(#waterGrad)"/>

    <path d="M 28 55 C 34 45 42 55 50 55 C 58 55 66 45 72 55" fill="none" stroke="#38bdf8" stroke-width="2" opacity="0.5"/>

    <rect x="45" y="38" width="10" height="30" rx="1" fill="#ffffff"/>
    <rect x="47" y="42" width="2" height="3" fill="#1e3a8a"/>
    <rect x="51" y="42" width="2" height="3" fill="#1e3a8a"/>
    <rect x="47" y="48" width="2" height="3" fill="#1e3a8a"/>
    <rect x="51" y="48" width="2" height="3" fill="#1e3a8a"/>
    <rect x="47" y="54" width="2" height="3" fill="#1e3a8a"/>
    <rect x="51" y="54" width="2" height="3" fill="#1e3a8a"/>
    
    <rect x="37" y="48" width="7" height="20" rx="1" fill="#e0f2fe"/>
    <rect x="39" y="52" width="3" height="2" fill="#1e3a8a"/>
    <rect x="39" y="57" width="3" height="2" fill="#1e3a8a"/>

    <rect x="56" y="45" width="8" height="23" rx="1" fill="#e0f2fe"/>
    <rect x="58" y="49" width="4" height="2" fill="#1e3a8a"/>
    <rect x="58" y="54" width="4" height="2" fill="#1e3a8a"/>

    <path d="M 44 28 A 6 6 0 0 1 56 28" fill="none" stroke="#ffffff" stroke-width="1.5" stroke-linecap="round"/>
    <path d="M 47 32 A 3 3 0 0 1 53 32" fill="none" stroke="#ffffff" stroke-width="1.5" stroke-linecap="round"/>

    <path d="M 27 82 L 50 86 L 72 82" fill="none" stroke="url(#techGrad)" stroke-width="1.5" stroke-dasharray="3 3"/>
  </g>
</svg>
