<svg viewBox="0 0 250 100" width="100%" height="100px" xmlns="http://www.w3.org/2000/svg">
  <defs>
    <linearGradient id="waterGrad" x1="0%" y1="0%" x2="100%" y2="100%">
      <stop offset="0%" stop-color="#0284c7" />
      <stop offset="100%" stop-color="#1e3a8a" />
    </linearGradient>
    <linearGradient id="techGrad" x1="0%" y1="0%" x2="100%" y2="0%">
      <stop offset="0%" stop-color="#10b981" />
      <stop offset="100%" stop-color="#06b6d4" />
    </linearGradient>
  </defs>

  <g transform="translate(10, 12)">
    
    <path d="M 4 58 L 12 58 L 16 54" fill="none" stroke="url(#techGrad)" stroke-width="2.5" stroke-linecap="round" stroke-linejoin="round"/>
    <circle cx="3" cy="58" r="2.5" fill="#10b981"/>
    
    <path d="M 8 35 L 14 35 L 18 39" fill="none" stroke="url(#techGrad)" stroke-width="2" stroke-linecap="round" stroke-linejoin="round"/>
    <circle cx="7" cy="35" r="2" fill="#10b981"/>

    <path d="M 72 45 L 64 45 L 58 51" fill="none" stroke="#0ea5e9" stroke-width="2.5" stroke-linecap="round" stroke-linejoin="round"/>
    <circle cx="73" cy="45" r="2.5" fill="#0ea5e9"/>

    <path d="M 68 25 L 60 25 L 55 30" fill="none" stroke="#0ea5e9" stroke-width="1.5" stroke-linecap="round" stroke-linejoin="round"/>
    <circle cx="69" cy="25" r="1.5" fill="#0ea5e9"/>

    <path d="M 38 5 C 38 5 16 38 16 55 C 16 67 25 76 38 76 C 51 76 60 67 60 55 C 60 38 38 5 38 5 Z" fill="url(#waterGrad)"/>

    <path d="M 16 55 C 22 45 30 55 38 55 C 46 55 54 45 60 55" fill="none" stroke="#38bdf8" stroke-width="2" opacity="0.5"/>

    <rect x="33" y="38" width="10" height="30" rx="1" fill="#ffffff"/>
    <rect x="35" y="42" width="2" height="3" fill="#1e3a8a"/>
    <rect x="39" y="42" width="2" height="3" fill="#1e3a8a"/>
    <rect x="35" y="48" width="2" height="3" fill="#1e3a8a"/>
    <rect x="39" y="48" width="2" height="3" fill="#1e3a8a"/>
    <rect x="35" y="54" width="2" height="3" fill="#1e3a8a"/>
    <rect x="39" y="54" width="2" height="3" fill="#1e3a8a"/>
    
    <rect x="25" y="48" width="7" height="20" rx="1" fill="#e0f2fe"/>
    <rect x="27" y="52" width="3" height="2" fill="#1e3a8a"/>
    <rect x="27" y="57" width="3" height="2" fill="#1e3a8a"/>

    <rect x="44" y="45" width="8" height="23" rx="1" fill="#e0f2fe"/>
    <rect x="46" y="49" width="4" height="2" fill="#1e3a8a"/>
    <rect x="46" y="54" width="4" height="2" fill="#1e3a8a"/>

    <path d="M 32 28 A 6 6 0 0 1 44 28" fill="none" stroke="#ffffff" stroke-width="1.5" stroke-linecap="round"/>
    <path d="M 35 32 A 3 3 0 0 1 41 32" fill="none" stroke="#ffffff" stroke-width="1.5" stroke-linecap="round"/>

    <path d="M 15 82 L 38 86 L 60 82" fill="none" stroke="url(#techGrad)" stroke-width="1.5" stroke-dasharray="3 3"/>
  </g>

  <text x="90" y="42" font-family="system-ui, -apple-system, sans-serif" font-size="18" font-weight="900" fill="#0f172a" letter-spacing="0.5">PERUMDAM</text>
  <text x="90" y="62" font-family="system-ui, -apple-system, sans-serif" font-size="19" font-weight="900" fill="#1e3a8a" letter-spacing="0.5">TIRTA SATRIA</text>
  
  <text x="90" y="82" font-family="system-ui, -apple-system, sans-serif" font-size="11" font-weight="700" fill="#0284c7">Kab. Banyumas</text>
  <text x="175" y="82" font-family="system-ui, -apple-system, sans-serif" font-size="11" font-weight="500" fill="#64748b">|  Smart Office</text>

  <circle cx="240" cy="78" r="3" fill="#10b981" />
</svg>
